# xmcd
#
# Track frame offsets:
#	150
#	14640
#	26125
#	37005
#	48642
#	67705
#	82772
#	96892
#	111660
#	121797
#	135065
#	149012
#	163290
#	173812
#	186857
#
# Disc length: 2629 seconds
#
# Revision: 3
# Processed by: cddbd v1.5.1PL0 Copyright (c) Steve Scherf et al.
# Submitted via: audiograbber 1.83.01
#
DISCID=cf0a430f
DTITLE=Various Artist - Classic Country 1975 - 1979
DYEAR=2001
DGENRE=Country
TTITLE0=Glen Campbell - Rhinestone Cowboy
TTITLE1=Crystal Gayle - Don't It Make My Brown Eyes Blue
TTITLE2=The Kendalls - Heaven's Just a Sin Away
TTITLE3=Freddie Fender - Before the Next Teardrop Falls
TTITLE4=Marty Robbins - El Paso City
TTITLE5=B.J. Thomas - (Hey, Won't You Play) Another Somebody Done Something Wro
TTITLE5=ng Song
TTITLE6=Merle Haggard and the Strangers - Always Wanting You
TTITLE7=Waylon Jennings - Luckenbach, Texas (Back to the Basics of Love)
TTITLE8=The Statler Brothers - Do You Know You Are My Sunshine
TTITLE9=Dolly Parton - Here You Come Again
TTITLE10=John Conlee - Lady Lay Down
TTITLE11=The Bellamy Brothers - If I Said You Had a Beautiful Body Would You Ho
TTITLE11=ld It Against Me
TTITLE12=Willie Nelson - Blue Eyes Crying in the Rain
TTITLE13=Conway Twitty - Happy Birthday Darlin'
TTITLE14=Babara Mandrell - Sleeping Single in a Double Bed
EXTD=ID3G:   2
EXTT0=
EXTT1=
EXTT2=
EXTT3=
EXTT4=
EXTT5=
EXTT6=
EXTT7=
EXTT8=
EXTT9=
EXTT10=
EXTT11=
EXTT12=
EXTT13=
EXTT14=
PLAYORDER=
